M48
; DRILL file {KiCad (6.0.8-1)-1} date Tuesday, October 18, 2022 at 12:20:42 AM
; FORMAT={-:-/ absolute / inch / decimal}
; #@! TF.CreationDate,2022-10-18T00:20:42-07:00
; #@! TF.GenerationSoftware,Kicad,Pcbnew,(6.0.8-1)-1
; #@! TF.FileFunction,MixedPlating,1,2
FMAT,2
INCH
; #@! TA.AperFunction,Plated,PTH,ViaDrill
T1C0.0157
; #@! TA.AperFunction,Plated,PTH,ViaDrill
T2C0.0250
; #@! TA.AperFunction,Plated,PTH,ComponentDrill
T3C0.0315
; #@! TA.AperFunction,Plated,PTH,ComponentDrill
T4C0.0394
%
G90
G05
T1
X4.175Y-3.625
X5.05Y-4.125
X5.075Y-4.175
X5.1Y-4.225
X5.15Y-4.225
X5.175Y-4.275
X5.2Y-4.325
X5.25Y-4.35
X5.325Y-4.375
X5.375Y-4.375
X5.425Y-4.375
X5.475Y-4.375
X5.5Y-3.45
X5.525Y-4.35
X5.575Y-3.45
X5.575Y-4.325
X5.625Y-4.3
X5.65Y-4.25
X5.95Y-2.675
X6.1Y-2.525
X6.1Y-4.05
X6.1Y-4.1
X6.55Y-4.55
X6.8Y-4.535
X6.85Y-2.275
X7.0Y-2.9
X7.3Y-4.675
X7.4Y-4.675
T2
X4.325Y-3.75
X4.475Y-3.75
X4.725Y-3.45
X4.775Y-2.75
X4.875Y-2.85
X4.975Y-2.95
X5.325Y-2.5
X5.325Y-2.75
X6.0Y-2.3
T3
X4.25Y-2.25
X4.25Y-2.35
X4.25Y-2.45
X4.25Y-2.55
X4.25Y-2.65
X4.25Y-2.75
X4.25Y-2.85
X4.25Y-2.95
X4.25Y-3.05
X4.25Y-3.15
X4.25Y-3.25
X4.25Y-3.35
X4.25Y-3.65
X4.25Y-3.75
X4.25Y-3.85
X4.25Y-3.95
X4.25Y-4.05
X4.25Y-4.15
X4.25Y-4.25
X4.25Y-4.35
X4.25Y-4.45
X4.25Y-4.55
X4.3Y-3.525
X4.3016Y-2.075
X4.4969Y-3.525
X4.4984Y-2.075
X4.55Y-2.25
X4.55Y-2.35
X4.55Y-2.45
X4.55Y-2.55
X4.55Y-2.65
X4.55Y-2.75
X4.55Y-2.85
X4.55Y-2.95
X4.55Y-3.05
X4.55Y-3.15
X4.55Y-3.25
X4.55Y-3.35
X4.55Y-3.65
X4.55Y-3.75
X4.55Y-3.85
X4.55Y-3.95
X4.55Y-4.05
X4.55Y-4.15
X4.55Y-4.25
X4.55Y-4.35
X4.55Y-4.45
X4.55Y-4.55
X4.675Y-4.6
X4.8719Y-4.6
X5.05Y-2.75
X5.05Y-2.85
X5.05Y-2.95
X5.05Y-3.05
X5.05Y-3.15
X5.05Y-3.25
X5.05Y-3.35
X5.05Y-3.45
X5.05Y-3.55
X5.05Y-3.65
X5.05Y-3.75
X5.05Y-3.85
X5.05Y-3.95
X5.05Y-4.05
X5.2516Y-2.4
X5.2516Y-2.62
X5.4484Y-2.4
X5.4484Y-2.62
X5.65Y-2.75
X5.65Y-2.85
X5.65Y-2.95
X5.65Y-3.05
X5.65Y-3.15
X5.65Y-3.25
X5.65Y-3.35
X5.65Y-3.45
X5.65Y-3.55
X5.65Y-3.65
X5.65Y-3.75
X5.65Y-3.85
X5.65Y-3.95
X5.65Y-4.05
X5.7Y-2.1
X5.7Y-2.4
X5.7Y-2.5266
X5.7Y-2.625
X5.8Y-2.1
X5.8Y-2.4
X5.85Y-2.5266
X5.85Y-2.625
X5.9Y-2.1
X5.9Y-2.4
X6.0Y-2.1
X6.0Y-2.4
X6.0Y-2.5266
X6.0Y-2.625
X6.1Y-2.1
X6.1Y-2.4
X6.2Y-2.1
X6.2Y-2.4
X6.2Y-2.75
X6.2Y-2.85
X6.2Y-2.95
X6.2Y-3.05
X6.2Y-3.15
X6.2Y-3.25
X6.2Y-3.35
X6.2Y-3.45
X6.2Y-3.55
X6.2Y-3.65
X6.2Y-3.75
X6.2Y-3.85
X6.2Y-3.95
X6.2Y-4.05
X6.2016Y-2.625
X6.3Y-2.1
X6.3Y-2.4
X6.3984Y-2.625
X6.475Y-2.1516
X6.475Y-2.3484
X6.4781Y-4.6
X6.6016Y-2.625
X6.65Y-2.1
X6.65Y-2.4
X6.675Y-4.6
X6.75Y-2.1
X6.75Y-2.4
X6.7984Y-2.625
X6.8Y-2.75
X6.8Y-2.85
X6.8Y-2.95
X6.8Y-3.05
X6.8Y-3.15
X6.8Y-3.25
X6.8Y-3.35
X6.8Y-3.45
X6.8Y-3.55
X6.8Y-3.65
X6.8Y-3.75
X6.8Y-3.85
X6.8Y-3.95
X6.8Y-4.05
X6.85Y-2.1
X6.85Y-2.4
X6.95Y-2.1
X6.95Y-2.4
X7.05Y-2.1
X7.05Y-2.4
X7.15Y-2.1
X7.15Y-2.4
X7.25Y-2.1
X7.25Y-2.4
X7.35Y-3.55
X7.35Y-3.85
X7.35Y-3.95
X7.35Y-4.05
X7.35Y-4.15
X7.35Y-4.15
X7.4466Y-3.35
X7.6434Y-3.35
X7.65Y-3.55
X7.65Y-3.85
X7.65Y-3.95
X7.65Y-4.05
X7.65Y-4.15
X7.65Y-4.15
T4
X7.515Y-2.945
X7.55Y-2.15
X7.55Y-2.25
X7.55Y-2.35
X7.55Y-2.45
X7.55Y-2.55
X7.615Y-2.945
X7.65Y-2.15
X7.65Y-2.25
X7.65Y-2.35
X7.65Y-2.45
X7.65Y-2.55
T0
M30
