%TF.GenerationSoftware,KiCad,Pcbnew,(6.0.8-1)-1*%
%TF.CreationDate,2022-10-18T00:20:39-07:00*%
%TF.ProjectId,SimpleSerialCard,53696d70-6c65-4536-9572-69616c436172,rev?*%
%TF.SameCoordinates,Original*%
%TF.FileFunction,Soldermask,Bot*%
%TF.FilePolarity,Negative*%
%FSLAX46Y46*%
G04 Gerber Fmt 4.6, Leading zero omitted, Abs format (unit mm)*
G04 Created by KiCad (PCBNEW (6.0.8-1)-1) date 2022-10-18 00:20:39*
%MOMM*%
%LPD*%
G01*
G04 APERTURE LIST*
G04 Aperture macros list*
%AMRoundRect*
0 Rectangle with rounded corners*
0 $1 Rounding radius*
0 $2 $3 $4 $5 $6 $7 $8 $9 X,Y pos of 4 corners*
0 Add a 4 corners polygon primitive as box body*
4,1,4,$2,$3,$4,$5,$6,$7,$8,$9,$2,$3,0*
0 Add four circle primitives for the rounded corners*
1,1,$1+$1,$2,$3*
1,1,$1+$1,$4,$5*
1,1,$1+$1,$6,$7*
1,1,$1+$1,$8,$9*
0 Add four rect primitives between the rounded corners*
20,1,$1+$1,$2,$3,$4,$5,0*
20,1,$1+$1,$4,$5,$6,$7,0*
20,1,$1+$1,$6,$7,$8,$9,0*
20,1,$1+$1,$8,$9,$2,$3,0*%
G04 Aperture macros list end*
%TA.AperFunction,Profile*%
%ADD10C,0.100000*%
%TD*%
%ADD11C,0.001000*%
%ADD12O,1.700000X1.700000*%
%ADD13R,1.700000X1.700000*%
%ADD14O,1.600000X1.600000*%
%ADD15R,1.600000X1.600000*%
%ADD16C,1.600000*%
%ADD17RoundRect,0.650000X-0.762000X3.175000X-0.762000X-3.175000X0.762000X-3.175000X0.762000X3.175000X0*%
G04 APERTURE END LIST*
D10*
X201002500Y-50038000D02*
X103542500Y-50038000D01*
X103542500Y-119888000D02*
X126072500Y-119888000D01*
X194017500Y-119888000D02*
G75*
G03*
X192747500Y-121158000I0J-1270000D01*
G01*
X194017500Y-119888000D02*
X201002500Y-119888000D01*
X103542500Y-50038000D02*
G75*
G03*
X102272500Y-51308000I0J-1270000D01*
G01*
X102272500Y-118618000D02*
X102272500Y-51308000D01*
X201002500Y-119888000D02*
G75*
G03*
X202272500Y-118618000I0J1270000D01*
G01*
X102272500Y-118618000D02*
G75*
G03*
X103542500Y-119888000I1270000J0D01*
G01*
X127342500Y-121158000D02*
G75*
G03*
X126072500Y-119888000I-1270000J0D01*
G01*
X192112500Y-127508000D02*
X127977500Y-127508000D01*
X192747500Y-126873000D02*
X192112500Y-127508000D01*
X127342500Y-126873000D02*
X127977500Y-127508000D01*
X192747500Y-121158000D02*
X192747500Y-126873000D01*
X202272500Y-51308000D02*
G75*
G03*
X201002500Y-50038000I-1270000J0D01*
G01*
X202272500Y-118618000D02*
X202272500Y-51308000D01*
X127342500Y-121158000D02*
X127342500Y-126873000D01*
%TO.C,P1*%
G36*
X192913000Y-127635000D02*
G01*
X191770000Y-127635000D01*
X191770000Y-120015000D01*
X192913000Y-120015000D01*
X192913000Y-127635000D01*
G37*
D11*
X192913000Y-127635000D02*
X191770000Y-127635000D01*
X191770000Y-120015000D01*
X192913000Y-120015000D01*
X192913000Y-127635000D01*
G36*
X128270000Y-127635000D02*
G01*
X127127000Y-127635000D01*
X127127000Y-120015000D01*
X128270000Y-120015000D01*
X128270000Y-127635000D01*
G37*
X128270000Y-127635000D02*
X127127000Y-127635000D01*
X127127000Y-120015000D01*
X128270000Y-120015000D01*
X128270000Y-127635000D01*
%TD*%
D12*
%TO.C,J2*%
X194310000Y-64770000D03*
X191770000Y-64770000D03*
X194310000Y-62230000D03*
X191770000Y-62230000D03*
X194310000Y-59690000D03*
X191770000Y-59690000D03*
X194310000Y-57150000D03*
X191770000Y-57150000D03*
X194310000Y-54610000D03*
D13*
X191770000Y-54610000D03*
%TD*%
D14*
%TO.C,U1*%
X115570000Y-92710000D03*
X115570000Y-95250000D03*
X115570000Y-97790000D03*
X115570000Y-100330000D03*
X115570000Y-102870000D03*
X115570000Y-105410000D03*
X115570000Y-107950000D03*
X115570000Y-110490000D03*
X115570000Y-113030000D03*
X115570000Y-115570000D03*
X107950000Y-115570000D03*
X107950000Y-113030000D03*
X107950000Y-110490000D03*
X107950000Y-107950000D03*
X107950000Y-105410000D03*
X107950000Y-102870000D03*
X107950000Y-100330000D03*
X107950000Y-97790000D03*
X107950000Y-95250000D03*
D15*
X107950000Y-92710000D03*
%TD*%
D14*
%TO.C,U2*%
X143510000Y-69850000D03*
X143510000Y-72390000D03*
X143510000Y-74930000D03*
X143510000Y-77470000D03*
X143510000Y-80010000D03*
X143510000Y-82550000D03*
X143510000Y-85090000D03*
X143510000Y-87630000D03*
X143510000Y-90170000D03*
X143510000Y-92710000D03*
X143510000Y-95250000D03*
X143510000Y-97790000D03*
X143510000Y-100330000D03*
X143510000Y-102870000D03*
X128270000Y-102870000D03*
X128270000Y-100330000D03*
X128270000Y-97790000D03*
X128270000Y-95250000D03*
X128270000Y-92710000D03*
X128270000Y-90170000D03*
X128270000Y-87630000D03*
X128270000Y-85090000D03*
X128270000Y-82550000D03*
X128270000Y-80010000D03*
X128270000Y-77470000D03*
X128270000Y-74930000D03*
X128270000Y-72390000D03*
D15*
X128270000Y-69850000D03*
%TD*%
D14*
%TO.C,U3*%
X194310000Y-97790000D03*
X194310000Y-100330000D03*
X194310000Y-102870000D03*
X194310000Y-105410000D03*
X186690000Y-105410000D03*
X186690000Y-102870000D03*
X186690000Y-100330000D03*
D15*
X186690000Y-97790000D03*
%TD*%
D14*
%TO.C,U7*%
X184150000Y-60960000D03*
X181610000Y-60960000D03*
X179070000Y-60960000D03*
X176530000Y-60960000D03*
X173990000Y-60960000D03*
X171450000Y-60960000D03*
X168910000Y-60960000D03*
X168910000Y-53340000D03*
X171450000Y-53340000D03*
X173990000Y-53340000D03*
X176530000Y-53340000D03*
X179070000Y-53340000D03*
X181610000Y-53340000D03*
D15*
X184150000Y-53340000D03*
%TD*%
D16*
%TO.C,C2*%
X133390000Y-66548000D03*
X138390000Y-66548000D03*
%TD*%
%TO.C,C3*%
X189143000Y-85090000D03*
X194143000Y-85090000D03*
%TD*%
%TO.C,C4*%
X109260000Y-52705000D03*
X114260000Y-52705000D03*
%TD*%
%TO.C,C5*%
X167680000Y-66675000D03*
X172680000Y-66675000D03*
%TD*%
%TO.C,C7*%
X162520000Y-66675000D03*
X157520000Y-66675000D03*
%TD*%
D14*
%TO.C,U5*%
X172720000Y-69850000D03*
X172720000Y-72390000D03*
X172720000Y-74930000D03*
X172720000Y-77470000D03*
X172720000Y-80010000D03*
X172720000Y-82550000D03*
X172720000Y-85090000D03*
X172720000Y-87630000D03*
X172720000Y-90170000D03*
X172720000Y-92710000D03*
X172720000Y-95250000D03*
X172720000Y-97790000D03*
X172720000Y-100330000D03*
X172720000Y-102870000D03*
X157480000Y-102870000D03*
X157480000Y-100330000D03*
X157480000Y-97790000D03*
X157480000Y-95250000D03*
X157480000Y-92710000D03*
X157480000Y-90170000D03*
X157480000Y-87630000D03*
X157480000Y-85090000D03*
X157480000Y-82550000D03*
X157480000Y-80010000D03*
X157480000Y-77470000D03*
X157480000Y-74930000D03*
X157480000Y-72390000D03*
D15*
X157480000Y-69850000D03*
%TD*%
D16*
%TO.C,C1*%
X109220000Y-89535000D03*
X114220000Y-89535000D03*
%TD*%
D14*
%TO.C,U6*%
X160020000Y-60960000D03*
X157480000Y-60960000D03*
X154940000Y-60960000D03*
X152400000Y-60960000D03*
X149860000Y-60960000D03*
X147320000Y-60960000D03*
X144780000Y-60960000D03*
X144780000Y-53340000D03*
X147320000Y-53340000D03*
X149860000Y-53340000D03*
X152400000Y-53340000D03*
X154940000Y-53340000D03*
X157480000Y-53340000D03*
D15*
X160020000Y-53340000D03*
%TD*%
D16*
%TO.C,C6*%
X164465000Y-54650000D03*
X164465000Y-59650000D03*
%TD*%
D14*
%TO.C,U4*%
X115570000Y-57150000D03*
X115570000Y-59690000D03*
X115570000Y-62230000D03*
X115570000Y-64770000D03*
X115570000Y-67310000D03*
X115570000Y-69850000D03*
X115570000Y-72390000D03*
X115570000Y-74930000D03*
X115570000Y-77470000D03*
X115570000Y-80010000D03*
X115570000Y-82550000D03*
X115570000Y-85090000D03*
X107950000Y-85090000D03*
X107950000Y-82550000D03*
X107950000Y-80010000D03*
X107950000Y-77470000D03*
X107950000Y-74930000D03*
X107950000Y-72390000D03*
X107950000Y-69850000D03*
X107950000Y-67310000D03*
X107950000Y-64770000D03*
X107950000Y-62230000D03*
X107950000Y-59690000D03*
D15*
X107950000Y-57150000D03*
%TD*%
D12*
%TO.C,J1*%
X193421000Y-74803000D03*
D13*
X190881000Y-74803000D03*
%TD*%
D16*
%TO.C,C8*%
X133390000Y-60960000D03*
X138390000Y-60960000D03*
%TD*%
%TO.C,C14*%
X152400000Y-66675000D03*
X152400000Y-64175000D03*
%TD*%
%TO.C,C9*%
X169545000Y-116840000D03*
X164545000Y-116840000D03*
%TD*%
%TO.C,C13*%
X144780000Y-66675000D03*
X144780000Y-64175000D03*
%TD*%
%TO.C,C10*%
X118745000Y-116840000D03*
X123745000Y-116840000D03*
%TD*%
%TO.C,C12*%
X148590000Y-66675000D03*
X148590000Y-64175000D03*
%TD*%
D17*
%TO.C,P1*%
X129540000Y-123825000D03*
X132080000Y-123825000D03*
X134620000Y-123825000D03*
X137160000Y-123825000D03*
X139700000Y-123825000D03*
X142240000Y-123825000D03*
X144780000Y-123825000D03*
X147320000Y-123825000D03*
X149860000Y-123825000D03*
X152400000Y-123825000D03*
X154940000Y-123825000D03*
X157480000Y-123825000D03*
X160020000Y-123825000D03*
X162560000Y-123825000D03*
X165100000Y-123825000D03*
X167640000Y-123825000D03*
X170180000Y-123825000D03*
X172720000Y-123825000D03*
X175260000Y-123825000D03*
X177800000Y-123825000D03*
X180340000Y-123825000D03*
X182880000Y-123825000D03*
X185420000Y-123825000D03*
X187960000Y-123825000D03*
X190500000Y-123825000D03*
%TD*%
D16*
%TO.C,ALT_U3*%
X194310000Y-90170000D03*
X194310000Y-105410000D03*
X186690000Y-105410000D03*
D15*
X186690000Y-90170000D03*
%TD*%
M02*
